<svg width="1200" height="400" viewBox="0 0 1200 400" fill="none" xmlns="http://www.w3.org/2000/svg">
<rect width="1200" height="400" fill="white"/>
<path d="M392.519 175.61C388.366 175.366 385.251 173.475 384.213 172.561L383.521 177.744L381.445 182.317L380.407 178.963C380.176 180.589 379.715 183.902 379.715 184.146C379.715 184.39 378.1 186.28 377.292 187.195L376.946 192.683C376.369 193.597 375.147 195.488 374.87 195.732C374.524 196.036 376.254 202.744 376.254 203.049C376.254 203.293 374.409 208.435 373.486 210.976L371.063 208.232L368.295 213.719C367.949 211.382 367.326 206.585 367.603 206.097C367.88 205.61 366.795 210.366 366.219 212.805V216.768L362.758 221.037L362.412 216.768L359.99 219.207L359.298 217.073L356.875 222.256L356.183 226.829L355.145 225.915L354.453 227.744L352.723 224.085L350.646 226.22L348.224 232.622V229.268L346.494 232.622H344.071V234.451L342.341 233.841L340.611 238.11L341.649 242.988L339.919 242.378L339.227 246.037L337.496 242.378L336.112 244.512C331.959 277.439 333.69 284.654 335.074 284.146C338.396 282.927 340.149 283.638 340.611 284.146C356.114 288.537 350.531 295.528 345.802 298.476H325.731C321.924 291.159 315.695 282.317 317.771 271.951C310.158 257.927 315.695 249.39 305.66 242.378C317.079 261.281 296.316 261.89 291.125 268.293H278.322C265.033 259.756 270.247 254.37 274.515 252.744C300.815 258.11 289.395 245.427 280.398 238.415C279.014 237.439 255.136 234.553 243.37 233.232C242.263 248.354 231.143 257.419 225.722 260.061C226.552 261.524 216.148 269.614 210.841 273.476C209.227 278.455 208.558 287.866 218.801 285.671C229.044 283.476 231.835 287.602 231.951 289.939C235.55 293.11 233.45 296.748 231.951 298.171L230.22 296.341L225.722 300L216.724 298.171L204.266 297.866C203.229 287.805 191.809 281.403 188.694 269.817C193.885 265.244 204.266 254.085 204.266 246.037C203.713 245.793 197.115 239.025 193.885 235.671C180.389 246.037 180.735 238.415 167.239 252.744C160.78 255.691 147.03 262.927 143.708 268.293C143.938 270.122 143.708 272.866 138.517 275.915C134.83 278.081 135.402 281.403 133.672 285.671C135.402 284.756 139.624 284.878 142.67 292.683C145.323 295.935 146.753 301.83 131.25 299.39C111.871 296.341 117.754 290.548 121.906 285.671C122.945 269.817 118.446 268.293 134.71 259.146C145.784 248.476 154.781 207.927 162.048 202.439C155.704 203.354 141.355 205.244 134.71 205.488M392.677 175.61C395.334 172.527 399.265 165.729 394.249 162.695M393.903 162.5C394.023 162.563 394.138 162.628 394.249 162.695M394.249 162.695C395.633 160.801 398.263 155.914 397.709 151.524M398.055 151.829C406.015 139.329 387.328 141.768 381.791 131.402C381.445 130.894 379.576 129.024 374.87 125.609L376.6 124.085L381.099 123.78C382.483 122.561 384.421 119.147 381.099 115.244M381.099 114.939C380.407 116.87 378.676 120.671 377.292 120.427C376.946 119.817 377.984 110.976 370.371 108.842C370.025 107.825 368.849 105.793 366.911 105.793C367.834 107.419 369.125 110.61 366.911 110.366C366.219 110.366 364.488 110.976 358.605 103.964C359.182 105.081 360.267 107.317 359.99 107.317C359.644 107.317 357.913 104.878 353.761 104.573C350.439 104.329 346.148 105.488 344.417 106.098C343.495 105.488 341.511 104.329 340.957 104.573C340.403 104.817 342.572 106.504 343.725 107.317C339.227 106.098 329.883 105.244 328.499 111.586C329.076 112.094 329.26 113.476 325.384 114.939C323.539 114.939 319.363 115.122 317.425 115.854C315.487 116.586 309.466 122.256 306.698 125C307.736 127.54 307.943 132.683 300.469 132.927L302.199 134.756C300.123 135.975 296.316 139.939 297.7 146.036C297.124 147.561 294.586 150.488 289.049 150C287.665 150.406 283.512 152.988 277.975 160.061C278.529 160.061 279.821 159.858 280.398 159.756L274.861 163.719C266.902 172.561 247.869 167.683 256.866 147.561C258.366 147.561 260.811 149.573 258.597 157.622C259.173 158.841 260.881 160.61 263.095 157.927C268.171 160.975 279.36 161.585 283.512 139.634C284.204 138.719 289.049 134.451 286.973 125.914C302.199 112.5 244.062 82.3168 240.948 125.914C233.912 139.532 216.932 166.951 205.305 167.683C193.677 168.415 162.163 184.654 147.86 192.683M147.86 192.683C144.459 194.592 140.649 195.57 136.786 195.766M147.86 192.683C189.732 170.122 134.71 125.914 111.525 154.878C153.743 105.183 174.16 135.366 194.231 132.622C201.498 126.524 221.223 117.073 223.992 110.671C224.53 109.427 221.846 107.866 224.338 107.622C227.452 107.317 232.297 100.61 232.297 100.61C232.297 100.61 226.76 105.793 228.144 103.659C229.252 101.951 229.413 100.711 229.528 100C227.567 103.15 223.507 108.841 222.953 106.402C222.4 103.963 221.108 103.15 220.531 103.049C202.537 100.61 198.384 131.113 185.58 125.914C110.487 95.4268 72.7672 194.207 122.598 204.268M136.786 195.766C101.143 194.817 107.026 156.674 126.405 153.963C145.784 151.253 170.838 168.232 136.786 195.766ZM134.71 205.488C121.099 212.297 100.382 230.305 126.405 247.866C126.636 251.626 126.751 259.146 125.367 259.146C125.482 258.537 125.644 257.256 125.367 257.012C123.421 256.71 119.682 257.008 120.164 260.585M134.71 205.488C133.095 205.488 128.412 205.244 122.598 204.268M120.176 260.671C120.172 260.642 120.168 260.614 120.164 260.585M120.164 260.585C118.151 261.427 114.919 264.573 118.1 270.427V273.781C117.869 272.764 117.2 270.732 116.37 270.732C115.539 270.732 115.793 272.968 116.024 274.086C115.331 272.053 114.362 266.89 116.024 262.5C114.178 263.923 110.348 263.293 109.795 249.391C105.296 240.244 101.559 218.415 122.598 204.268" stroke="black" stroke-width="2"/>
<path d="M511.938 149.832C516.46 149.832 521.666 150.472 527.554 151.752C533.527 153.032 537.879 154.397 540.61 155.848V180.68H535.746C527.895 167.283 517.484 160.584 504.514 160.584C498.882 160.584 493.719 162.248 489.026 165.576C484.418 168.819 480.791 173.384 478.146 179.272C475.5 185.075 474.178 191.603 474.178 198.856C474.178 207.219 475.458 214.856 478.018 221.768C480.663 228.68 484.631 234.227 489.922 238.408C495.298 242.589 501.911 244.68 509.762 244.68C517.015 244.68 527.426 239.219 540.994 228.296L544.834 234.44L521.282 252.744C518.124 253.853 515.052 254.579 512.066 254.92C509.164 255.347 506.007 255.56 502.594 255.56C493.634 255.56 485.698 253.384 478.786 249.032C471.874 244.68 466.498 238.707 462.658 231.112C458.818 223.432 456.898 214.728 456.898 205C456.898 195.016 459.799 185.8 465.602 177.352C471.404 168.819 478.615 162.12 487.234 157.256C495.852 152.307 504.087 149.832 511.938 149.832ZM636.65 253H612.33V209.864C612.33 205.171 611.604 201.885 610.154 200.008C608.703 198.131 606.1 197.192 602.346 197.192C599.53 197.192 596.714 197.704 593.898 198.728C591.167 199.752 587.924 201.715 584.17 204.616V243.4L595.69 247.88L593.13 253H557.418V249.032L568.81 240.072V161.352L557.418 153.416V149.448L579.306 141.256H584.17V198.6L601.706 184.776C603.498 184.093 605.844 183.752 608.746 183.752C614.548 183.752 619.156 185.544 622.57 189.128C625.983 192.627 627.69 197.405 627.69 203.464V243.4L639.21 247.88L636.65 253ZM685.19 253H649.478V249.032L660.87 240.072V202.696L649.478 194.76V190.792L671.366 182.6H676.229V243.4L687.75 247.88L685.19 253ZM668.038 144.2C670.598 144.2 672.688 145.139 674.31 147.016C676.016 148.893 676.87 151.24 676.87 154.056C676.87 156.019 676.272 157.896 675.078 159.688C673.883 161.395 672.39 162.76 670.598 163.784C668.806 164.808 667.056 165.32 665.35 165.32C662.79 165.32 660.656 164.381 658.95 162.504C657.328 160.627 656.518 158.28 656.518 155.464C656.518 153.501 657.115 151.667 658.31 149.96C659.504 148.168 660.998 146.76 662.79 145.736C664.582 144.712 666.331 144.2 668.038 144.2ZM819.548 253H795.228V209.864C795.228 205.171 794.502 201.885 793.052 200.008C791.601 198.131 788.998 197.192 785.244 197.192C782.598 197.192 779.996 197.704 777.436 198.728C774.876 199.667 771.846 201.587 768.348 204.488V243.4L779.868 247.88L777.308 253H752.988V209.864C752.988 205.171 752.262 201.885 750.812 200.008C749.361 198.131 746.758 197.192 743.004 197.192C740.358 197.192 737.756 197.704 735.196 198.728C732.636 199.667 729.606 201.587 726.108 204.488V243.4L737.628 247.88L735.068 253H699.356V249.032L710.748 240.072V203.848L699.356 197.192V193.224L721.244 182.472L725.34 198.856L742.364 184.648C744.156 183.965 746.502 183.624 749.404 183.624C754.353 183.624 758.449 184.989 761.692 187.72C764.934 190.365 766.982 194.035 767.836 198.728L784.476 184.776C786.268 184.093 788.614 183.752 791.516 183.752C797.318 183.752 801.926 185.544 805.34 189.128C808.753 192.627 810.46 197.405 810.46 203.464V243.4L822.108 247.88L819.548 253ZM875.876 253.256C872.462 253.939 868.366 254.28 863.588 254.28C857.956 254.28 852.878 252.829 848.356 249.928C843.918 246.941 840.42 242.931 837.86 237.896C835.385 232.861 834.148 227.315 834.148 221.256C834.148 214.685 836.153 208.541 840.164 202.824C844.174 197.021 849.166 192.413 855.14 189C861.198 185.501 867.044 183.752 872.676 183.752C880.782 183.752 887.054 186.952 891.492 193.352C896.014 199.752 898.276 208.2 898.276 218.696H850.916C851.428 225.949 853.39 231.88 856.804 236.488C860.302 241.096 865.038 243.4 871.012 243.4C876.558 243.4 884.452 239.091 894.692 230.472L898.532 235.336L875.876 253.256ZM865.252 194.504C856.036 194.504 851.214 200.819 850.788 213.448H880.74C879.972 208.84 879.161 205.341 878.308 202.952C877.54 200.477 876.132 198.472 874.084 196.936C872.121 195.315 869.177 194.504 865.252 194.504ZM960.686 183.88C963.502 183.88 965.976 184.648 968.11 186.184C970.243 187.72 971.907 189.853 973.102 192.584L964.654 203.208H959.79C959.448 201.075 958.808 199.581 957.87 198.728C957.016 197.789 955.822 197.32 954.286 197.32C952.408 197.32 950.403 197.832 948.27 198.856C946.222 199.795 943.875 201.629 941.229 204.36V242.504L959.15 248.008L956.59 253.128H914.478V249.16L925.87 240.2V203.976L914.478 197.32V193.352L936.366 182.6L940.333 198.344L953.646 184.776C955.438 184.093 957.784 183.752 960.686 183.752V183.88ZM1046.29 253H1021.97V241.864L1007.51 253.256C1005.8 253.939 1003.67 254.28 1001.11 254.28C993.768 254.28 988.435 252.445 985.107 248.776C981.864 245.107 980.243 240.712 980.243 235.592C980.243 232.52 981.352 229.491 983.571 226.504C985.789 223.517 988.947 220.701 993.043 218.056H1021.97V209.864C1021.97 204.317 1020.48 200.392 1017.49 198.088C1014.59 195.784 1010.58 194.632 1005.46 194.632C1000.17 194.632 993.683 197.832 986.003 204.232L982.163 199.368L1000.59 184.776C1004.01 184.093 1008.1 183.752 1012.88 183.752C1020.65 183.752 1026.66 185.672 1030.93 189.512C1035.2 193.267 1037.33 198.771 1037.33 206.024V243.4L1048.85 247.88L1046.29 253ZM1005.2 243.4C1010.41 243.4 1016 241.011 1021.97 236.232V223.304H999.315C998.205 224.669 997.395 226.035 996.883 227.4C996.456 228.765 996.243 230.259 996.243 231.88C996.243 235.037 997.053 237.768 998.675 240.072C1000.3 242.291 1002.47 243.4 1005.2 243.4Z" fill="black"/>
</svg>
