<svg width="400" height="400" viewBox="0 0 400 400" fill="none" xmlns="http://www.w3.org/2000/svg">
<rect width="400" height="400" fill="white"/>
<path d="M342.519 175.61C338.366 175.366 335.251 173.475 334.213 172.561L333.521 177.744L331.445 182.317L330.407 178.963C330.176 180.589 329.715 183.902 329.715 184.146C329.715 184.39 328.1 186.28 327.292 187.195L326.946 192.683C326.369 193.597 325.147 195.488 324.87 195.732C324.524 196.036 326.254 202.744 326.254 203.049C326.254 203.293 324.409 208.435 323.486 210.976L321.063 208.232L318.295 213.719C317.949 211.382 317.326 206.585 317.603 206.097C317.88 205.61 316.795 210.366 316.219 212.805V216.768L312.758 221.037L312.412 216.768L309.99 219.207L309.298 217.073L306.875 222.256L306.183 226.829L305.145 225.915L304.453 227.744L302.723 224.085L300.646 226.22L298.224 232.622V229.268L296.494 232.622H294.071V234.451L292.341 233.841L290.611 238.11L291.649 242.988L289.919 242.378L289.227 246.037L287.496 242.378L286.112 244.512C281.959 277.439 283.69 284.654 285.074 284.146C288.396 282.927 290.149 283.638 290.611 284.146C306.114 288.537 300.531 295.528 295.802 298.476H275.731C271.924 291.159 265.695 282.317 267.771 271.951C260.158 257.927 265.695 249.39 255.66 242.378C267.079 261.281 246.316 261.89 241.125 268.293H228.322C215.033 259.756 220.247 254.37 224.515 252.744C250.815 258.11 239.395 245.427 230.398 238.415C229.014 237.439 205.136 234.553 193.37 233.232C192.263 248.354 181.143 257.419 175.722 260.061C176.552 261.524 166.148 269.614 160.841 273.476C159.227 278.455 158.558 287.866 168.801 285.671C179.044 283.476 181.835 287.602 181.951 289.939C185.55 293.11 183.45 296.748 181.951 298.171L180.22 296.341L175.722 300L166.724 298.171L154.266 297.866C153.229 287.805 141.809 281.403 138.694 269.817C143.885 265.244 154.266 254.085 154.266 246.037C153.713 245.793 147.115 239.025 143.885 235.671C130.389 246.037 130.735 238.415 117.239 252.744C110.78 255.691 97.0298 262.927 93.7077 268.293C93.9384 270.122 93.7077 272.866 88.5169 275.915C84.8296 278.081 85.4024 281.403 83.6722 285.671C85.4024 284.756 89.6243 284.878 92.6695 292.683C95.3226 295.935 96.7529 301.83 81.2498 299.39C61.8709 296.341 67.7538 290.548 71.9064 285.671C72.9445 269.817 68.4459 268.293 84.7103 259.146C95.784 248.476 104.781 207.927 112.048 202.439C105.704 203.354 91.3546 205.244 84.7103 205.488M342.677 175.61C345.334 172.527 349.265 165.729 344.249 162.695M343.903 162.5C344.023 162.563 344.138 162.628 344.249 162.695M344.249 162.695C345.633 160.801 348.263 155.914 347.709 151.524M348.055 151.829C356.015 139.329 337.328 141.768 331.791 131.402C331.445 130.894 329.576 129.024 324.87 125.609L326.6 124.085L331.099 123.78C332.483 122.561 334.421 119.147 331.099 115.244M331.099 114.939C330.407 116.87 328.676 120.671 327.292 120.427C326.946 119.817 327.984 110.976 320.371 108.842C320.025 107.825 318.849 105.793 316.911 105.793C317.834 107.419 319.125 110.61 316.911 110.366C316.219 110.366 314.488 110.976 308.605 103.964C309.182 105.081 310.267 107.317 309.99 107.317C309.644 107.317 307.913 104.878 303.761 104.573C300.439 104.329 296.148 105.488 294.417 106.098C293.495 105.488 291.511 104.329 290.957 104.573C290.403 104.817 292.572 106.504 293.725 107.317C289.227 106.098 279.883 105.244 278.499 111.586C279.076 112.094 279.26 113.476 275.384 114.939C273.539 114.939 269.363 115.122 267.425 115.854C265.487 116.586 259.466 122.256 256.698 125C257.736 127.54 257.943 132.683 250.469 132.927L252.199 134.756C250.123 135.975 246.316 139.939 247.7 146.036C247.124 147.561 244.586 150.488 239.049 150C237.665 150.406 233.512 152.988 227.975 160.061C228.529 160.061 229.821 159.858 230.398 159.756L224.861 163.719C216.902 172.561 197.869 167.683 206.866 147.561C208.366 147.561 210.811 149.573 208.597 157.622C209.173 158.841 210.881 160.61 213.095 157.927C218.171 160.975 229.36 161.585 233.512 139.634C234.204 138.719 239.049 134.451 236.973 125.914C252.199 112.5 194.062 82.3168 190.948 125.914C183.912 139.532 166.932 166.951 155.305 167.683C143.677 168.415 112.163 184.654 97.86 192.683M97.86 192.683C94.4586 194.592 90.6491 195.57 86.7863 195.766M97.86 192.683C139.732 170.122 84.7102 125.914 61.5247 154.878C103.743 105.183 124.16 135.366 144.231 132.622C151.498 126.524 171.223 117.073 173.992 110.671C174.53 109.427 171.846 107.866 174.338 107.622C177.452 107.317 182.297 100.61 182.297 100.61C182.297 100.61 176.76 105.793 178.144 103.659C179.252 101.951 179.413 100.711 179.528 100C177.567 103.15 173.507 108.841 172.953 106.402C172.4 103.963 171.108 103.15 170.531 103.049C152.537 100.61 148.384 131.113 135.58 125.914C60.4867 95.4268 22.7672 194.207 72.5985 204.268M86.7863 195.766C51.1432 194.817 57.026 156.674 76.405 153.963C95.784 151.253 120.838 168.232 86.7863 195.766ZM84.7103 205.488C71.0989 212.297 50.3818 230.305 76.405 247.866C76.6357 251.626 76.7511 259.146 75.3669 259.146C75.4823 258.537 75.6438 257.256 75.3669 257.012C73.4214 256.71 69.6818 257.008 70.1639 260.585M84.7103 205.488C83.0954 205.488 78.4122 205.244 72.5985 204.268M70.1761 260.671C70.1718 260.642 70.1677 260.614 70.1639 260.585M70.1639 260.585C68.1506 261.427 64.9191 264.573 68.0998 270.427V273.781C67.8691 272.764 67.2001 270.732 66.3696 270.732C65.539 270.732 65.7928 272.968 66.0235 274.086C65.3314 272.053 64.3625 266.89 66.0235 262.5C64.1779 263.923 60.3483 263.293 59.7946 249.391C55.2959 240.244 51.5585 218.415 72.5985 204.268" stroke="black" stroke-width="2"/>
</svg>
